<?xml version="1.0" encoding="UTF-8" standalone="no"?>
<svg
   xmlns:dc="http://purl.org/dc/elements/1.1/"
   xmlns:cc="http://creativecommons.org/ns#"
   xmlns:rdf="http://www.w3.org/1999/02/22-rdf-syntax-ns#"
   xmlns:svg="http://www.w3.org/2000/svg"
   xmlns="http://www.w3.org/2000/svg"
   id="svg1055"
   xml:space="preserve"
   enable-background="new 0 0 842 595.22"
   viewBox="0 0 643.01501 260.35502"
   height="260.35501"
   width="643.01501"
   y="0px"
   x="0px"
   version="1.1"><metadata
   id="metadata1061"><rdf:RDF><cc:Work
       rdf:about=""><dc:format>image/svg+xml</dc:format><dc:type
         rdf:resource="http://purl.org/dc/dcmitype/StillImage" /><dc:title></dc:title></cc:Work></rdf:RDF></metadata><defs
   id="defs1059" />
<g
   transform="translate(-106.229,-162.539)"
   display="none"
   id="Ebene_5">
	<rect
   id="rect948"
   height="378.66699"
   width="710.66699"
   fill="#ff1da4"
   display="inline"
   y="99.667"
   x="74.667" />
</g>
<g
   transform="translate(-106.229,-162.539)"
   id="VÖCKLABRUCK">
	<polyline
   id="polyline951"
   points="256.314,174.762 260.786,174.762 265.257,195.827 265.331,195.827 270.061,174.762    274.533,174.762 267.88,201.149 262.522,201.149 256.314,174.762  "
   fill="#9d9d9c" />
	<path
   id="path953"
   d="m 289.573,172.544 v -3.991 h 3.549 v 3.991 z m 3.217,15.3 c 0,-8.869 -1.996,-10.422 -4.51,-10.422 -2.513,0 -4.508,1.553 -4.508,10.422 0,9.091 1.995,10.643 4.508,10.643 2.513,0 4.51,-1.551 4.51,-10.643 m -9.351,-15.3 v -3.991 h 3.549 v 3.991 z m -3.882,15.412 c 0,-9.425 2.663,-13.711 8.722,-13.711 6.062,0 8.723,4.286 8.723,13.711 0,9.422 -2.661,13.71 -8.723,13.71 -6.059,0.001 -8.722,-4.288 -8.722,-13.71"
   fill="#9d9d9c" />
	<path
   id="path955"
   d="m 320.653,191.688 v 0.555 c 0,4.767 -1.921,9.424 -8.129,9.424 -6.653,0 -8.723,-4.288 -8.723,-13.711 0,-9.425 2.07,-13.712 8.759,-13.712 7.502,0 7.945,5.544 7.945,8.278 v 0.481 h -4.212 v -0.444 c 0,-2.439 -0.74,-5.247 -3.77,-5.137 -3.105,0 -4.508,1.922 -4.508,10.422 0,8.5 1.403,10.643 4.508,10.643 3.51,0 3.917,-3.917 3.917,-6.357 v -0.442 h 4.213"
   fill="#9d9d9c" />
	<polyline
   id="polyline957"
   points="327.303,174.762 331.518,174.762 331.518,186.255 331.591,186.255 339.573,174.762    344.193,174.762 336.579,185.885 345.006,201.149 340.24,201.149 333.846,189.286 331.518,192.611 331.518,201.149    327.303,201.149 327.303,174.762  "
   fill="#9d9d9c" />
	<polyline
   id="polyline959"
   points="349.699,174.762 353.912,174.762 353.912,197.601 364.112,197.601 364.112,201.149    349.699,201.149 349.699,174.762  "
   fill="#9d9d9c" />
	<path
   id="path961"
   d="m 380.889,191.317 -3.031,-13.008 h -0.075 l -3.143,13.008 h 6.249 m -5.617,-16.555 h 5.396 l 6.948,26.387 h -4.398 l -1.627,-6.468 h -7.722 l -1.702,6.468 h -4.396 z"
   fill="#9d9d9c" />
	<path
   id="path963"
   d="m 401.547,197.97 c 2.513,0 3.88,-1.625 3.88,-4.656 0,-2.845 -1.7,-4.472 -4.139,-4.472 h -3.917 v 9.128 h 4.176 m -0.85,-12.085 c 2.549,0 3.88,-1.7 3.88,-4.176 0,-3.141 -1.886,-3.769 -4.25,-3.769 h -2.956 v 7.945 z m -7.54,-11.123 h 8.538 c 3.917,0 7.096,1.737 7.096,6.394 0,3.215 -1.258,5.173 -3.881,5.986 v 0.074 c 2.883,0.518 4.73,2.255 4.73,6.727 0,4.397 -3.179,7.206 -8.129,7.206 h -8.354 z"
   fill="#9d9d9c" />
	<path
   id="path965"
   d="m 424.273,186.515 c 2.699,0 4.213,-1.627 4.213,-4.287 0,-2.81 -1.219,-4.287 -3.991,-4.287 h -3.585 v 8.574 h 3.363 m -7.576,-11.753 h 9.314 c 3.696,0 6.688,1.848 6.688,6.8 0,3.399 -1.515,6.023 -4.397,6.466 v 0.075 c 2.624,0.259 3.991,1.699 4.14,5.396 0.037,1.699 0.072,3.77 0.146,5.358 0.075,1.293 0.703,1.921 1.257,2.292 h -4.767 c -0.406,-0.481 -0.592,-1.294 -0.703,-2.328 -0.146,-1.589 -0.109,-3.068 -0.186,-4.99 -0.071,-2.883 -0.96,-4.14 -3.841,-4.14 h -3.438 v 11.458 h -4.213 z"
   fill="#9d9d9c" />
	<path
   id="path967"
   d="m 444.117,174.762 v 18.922 c 0,3.325 1.33,4.804 3.883,4.804 2.512,0 3.842,-1.479 3.842,-4.804 v -18.922 h 4.213 v 18.589 c 0,6.098 -3.031,8.315 -8.055,8.315 -5.064,0 -8.094,-2.218 -8.094,-8.315 v -18.589 h 4.211"
   fill="#9d9d9c" />
	<path
   id="path969"
   d="m 480.001,191.688 v 0.555 c 0,4.767 -1.921,9.424 -8.132,9.424 -6.652,0 -8.721,-4.288 -8.721,-13.711 0,-9.425 2.068,-13.712 8.759,-13.712 7.501,0 7.947,5.544 7.947,8.278 v 0.481 h -4.216 v -0.444 c 0,-2.439 -0.737,-5.247 -3.77,-5.137 -3.104,0 -4.508,1.922 -4.508,10.422 0,8.5 1.404,10.643 4.508,10.643 3.513,0 3.919,-3.917 3.919,-6.357 v -0.442 h 4.214"
   fill="#9d9d9c" />
	<polyline
   id="polyline971"
   points="486.651,174.762 490.864,174.762 490.864,186.255 490.938,186.255 498.923,174.762    503.542,174.762 495.928,185.885 504.354,201.149 499.588,201.149 493.194,189.286 490.864,192.611 490.864,201.149    486.651,201.149 486.651,174.762  "
   fill="#9d9d9c" />
</g>
<g
   transform="translate(-106.229,-162.539)"
   id="VHTL">
	<polygon
   id="polygon974"
   points="577.996,379.202 748.465,379.202 748.501,337.521 634.966,337.521 634.966,262.791 577.996,262.791 "
   fill="none" />
	<polygon
   id="polygon976"
   points="577.996,379.202 748.465,379.202 748.501,337.521 634.966,337.521 634.966,262.791 577.996,262.791 "
   fill="#134883" />
	<polygon
   id="polygon978"
   points="256.601,215.682 192.682,379.201 278.095,379.201 341.994,215.682 "
   fill="#b2b2b2" />
	<polygon
   id="polygon980"
   points="256.601,215.682 192.682,379.201 278.095,379.201 341.994,215.682 "
   fill="none" />
	<polygon
   id="polygon982"
   points="191.421,162.539 106.229,162.539 187.589,377.022 232.233,262.811 "
   fill="#134883" />
	<polygon
   id="polygon984"
   points="296.438,332.26 296.438,215.682 256.601,215.682 192.682,379.201 278.095,379.201 "
   fill="none" />
	<polygon
   id="polygon986"
   points="451.107,257.371 514.87,257.371 514.87,379.201 571.845,379.201 571.845,257.371 635.112,257.371 635.112,215.682 451.107,215.682 "
   fill="none" />
	<polygon
   id="polygon988"
   points="635.112,215.682 451.107,215.682 451.107,257.371 514.87,257.371 514.87,379.201 571.845,379.201 571.845,257.371 635.112,257.371 "
   fill="none" />
	<polygon
   id="polygon990"
   points="635.112,215.682 451.107,215.682 451.107,257.371 514.87,257.371 514.87,379.201 571.845,379.201 571.845,257.371 635.112,257.371 "
   fill="none" />
	<polygon
   id="polygon992"
   points="451.107,257.371 514.87,257.371 514.87,379.201 571.845,379.201 571.845,257.371 635.112,257.371 635.112,215.682 451.107,215.682 "
   fill="#134883" />
	<polygon
   id="polygon994"
   points="451.581,319.902 451.581,379.201 508.565,379.201 508.565,262.789 451.581,262.789 451.581,274.141 358.031,274.141 358.031,215.682 347.938,215.682 301.052,335.663 301.052,379.201 358.031,379.201 358.031,319.902 "
   fill="#134883" />
</g>
<g
   transform="translate(-106.229,-162.539)"
   display="none"
   id="Textebene">
	
		<text
   id="text997"
   letter-spacing="3.765"
   font-size="41.4764px"
   font-family="HelveticaNeue-Condensed"
   display="inline"
   transform="matrix(1.0625,0,0,1,187.3696,423.3506)">education on a higher level</text>
	
		<text
   id="text999"
   letter-spacing="3"
   font-size="38px"
   font-family="HelveticaNeue-Condensed"
   display="inline"
   transform="translate(254.5669,201.8765)">VÖCKLABRUCK</text>
	<text
   id="text1005"
   display="inline"
   transform="translate(95.2544,54.6328)"><tspan
     id="tspan1001"
     letter-spacing="3"
     font-size="38px"
     font-family="HelveticaNeue-Condensed"
     y="0"
     x="0">Helvetica Condensed</tspan><tspan
     id="tspan1003"
     letter-spacing="3"
     font-size="38px"
     font-family="HelveticaNeue-Condensed"
     y="45.599998"
     x="0">Erweiterter Buchstabenabstand</tspan></text>
</g>
<g
   transform="translate(-106.229,-162.539)"
   id="education_on_a_higher_level">
	<path
   id="path1008"
   d="m 193.063,401.823 h 7.926 v -1.205 c 0,-3.624 -1.29,-5.433 -3.858,-5.433 -1.413,0 -2.477,0.646 -3.194,1.951 -0.584,1.078 -0.874,2.36 -0.874,3.857 v 0.83 m 11.576,2.737 h -11.694 c 0,2.545 0.176,4.398 0.537,5.559 0.608,1.991 1.854,2.983 3.734,2.983 1.438,0 2.484,-0.642 3.15,-1.947 0.412,-0.889 0.624,-1.95 0.624,-3.191 h 3.482 c 0,1.74 -0.483,3.343 -1.452,4.812 -1.355,2.045 -3.361,3.068 -6.016,3.068 -2.681,0 -4.646,-0.956 -5.887,-2.861 -1.219,-1.827 -1.827,-4.676 -1.827,-8.547 0,-7.992 2.641,-11.989 7.926,-11.989 3.011,0 5.1,1.189 6.265,3.569 0.771,1.602 1.158,3.982 1.158,7.13 z"
   fill="#9d9d9c" />
	<path
   id="path1010"
   d="m 217.127,404.146 c 0,2.873 0.275,4.991 0.825,6.348 0.643,1.575 1.72,2.365 3.24,2.365 1.768,0 2.996,-0.818 3.691,-2.454 0.526,-1.297 0.786,-3.386 0.786,-6.259 0,-5.806 -1.491,-8.712 -4.477,-8.712 -1.52,0 -2.597,0.786 -3.24,2.359 -0.55,1.36 -0.825,3.476 -0.825,6.353 m 11.82,-18.502 v 29.616 h -3.316 v -2.742 h -0.169 c -0.249,0.891 -0.794,1.65 -1.647,2.288 -0.934,0.691 -1.977,1.037 -3.132,1.037 -4.804,0 -7.21,-3.903 -7.21,-11.697 0,-7.8 2.356,-11.701 7.062,-11.701 1.03,0 2.011,0.284 2.941,0.852 0.939,0.566 1.602,1.323 1.986,2.26 v -9.912 h 3.485 z"
   fill="#9d9d9c" />
	<path
   id="path1012"
   d="m 253.917,393.027 v 22.232 h -3.314 v -2.612 h -0.085 c -0.444,0.998 -1.169,1.777 -2.181,2.343 -1.007,0.568 -2.08,0.853 -3.213,0.853 -2.542,0 -4.244,-0.847 -5.1,-2.53 -0.498,-0.969 -0.749,-2.478 -0.749,-4.523 v -15.762 h 3.483 v 15.348 c 0,2.985 1.093,4.483 3.282,4.483 1.101,0 2.073,-0.351 2.901,-1.039 0.996,-0.829 1.492,-1.979 1.492,-3.444 v -15.348 h 3.484"
   fill="#9d9d9c" />
	<path
   id="path1014"
   d="m 278.353,399.788 h -3.485 c 0,-1.248 -0.25,-2.276 -0.748,-3.111 -0.634,-0.998 -1.563,-1.491 -2.776,-1.491 -1.329,0 -2.323,0.508 -2.986,1.532 -0.917,1.44 -1.372,3.994 -1.372,7.679 0,2.404 0.179,4.213 0.54,5.431 0.634,2.186 1.867,3.274 3.691,3.274 2.434,0 3.652,-1.849 3.652,-5.558 h 3.485 c 0,2.135 -0.529,3.953 -1.581,5.477 -1.296,1.883 -3.205,2.822 -5.719,2.822 -2.687,0 -4.65,-0.955 -5.895,-2.861 -1.217,-1.827 -1.821,-4.676 -1.821,-8.547 0,-7.992 2.638,-11.989 7.92,-11.989 2.653,0 4.591,0.901 5.808,2.694 0.853,1.275 1.287,2.822 1.287,4.648"
   fill="#9d9d9c" />
	<path
   id="path1016"
   d="m 297.971,408.87 v -5.726 c -0.493,0.528 -1.449,1.011 -2.858,1.453 -1.663,0.527 -2.685,0.915 -3.074,1.163 -1.13,0.692 -1.699,1.867 -1.699,3.528 0,2.544 1.05,3.813 3.152,3.813 1.161,0 2.197,-0.422 3.113,-1.269 0.91,-0.836 1.366,-1.824 1.366,-2.962 m -7.261,-9.122 h -3.479 c 0,-2.544 0.586,-4.398 1.765,-5.558 1.17,-1.163 3.07,-1.746 5.703,-1.746 2.927,0 4.906,0.779 5.927,2.336 0.554,0.859 0.832,2.22 0.832,4.081 v 12.454 c 0,1.19 0.357,1.786 1.076,1.786 0.364,0 0.638,-0.095 0.829,-0.287 v 2.526 c -0.829,0.141 -1.503,0.209 -2.028,0.209 -0.942,0 -1.605,-0.122 -1.994,-0.379 -0.692,-0.392 -1.08,-1.23 -1.162,-2.524 h -0.081 c -0.554,0.969 -1.324,1.741 -2.3,2.325 -0.989,0.578 -2.003,0.871 -3.051,0.871 -4.039,0 -6.054,-2.159 -6.054,-6.47 0,-3.265 1.389,-5.314 4.187,-6.141 l 4.686,-1.409 c 1.163,-0.363 1.893,-0.79 2.201,-1.289 0.221,-0.33 0.332,-1.021 0.332,-2.074 0,-2.181 -1.188,-3.274 -3.567,-3.274 -2.545,0 -3.821,1.449 -3.821,4.354 v 0.209 z"
   fill="#9d9d9c" />
	<path
   id="path1018"
   d="m 313.029,393.027 v -6.475 h 3.484 v 6.475 h 3.862 v 2.736 h -3.862 v 14.308 c 0,0.913 0.158,1.56 0.477,1.932 0.321,0.376 0.917,0.562 1.803,0.562 0.276,0 0.794,-0.057 1.534,-0.167 v 2.899 c -0.908,0.171 -1.848,0.252 -2.819,0.252 -1.713,0 -2.916,-0.372 -3.608,-1.12 -0.581,-0.639 -0.87,-1.732 -0.87,-3.282 v -15.383 h -3.237 v -2.736 h 3.236"
   fill="#9d9d9c" />
	<path
   id="path1020"
   d="m 328.749,415.26 v -22.231 h 3.484 v 22.231 z m 0,-25.635 v -3.981 h 3.484 v 3.981 z"
   fill="#9d9d9c" />
	<path
   id="path1022"
   d="m 349.656,413.102 c 2.958,0 4.439,-2.982 4.439,-8.957 0,-2.793 -0.274,-4.897 -0.831,-6.303 -0.691,-1.771 -1.895,-2.656 -3.608,-2.656 -2.85,0 -4.274,2.987 -4.274,8.959 0,5.974 1.425,8.957 4.274,8.957 m -7.919,-8.957 c 0,-7.799 2.668,-11.7 8.006,-11.7 5.329,0 7.999,3.901 7.999,11.7 0,7.795 -2.67,11.698 -7.999,11.698 -5.338,0 -8.006,-3.904 -8.006,-11.698"
   fill="#9d9d9c" />
	<path
   id="path1024"
   d="m 367.038,415.26 v -22.231 h 3.321 v 2.612 h 0.083 c 0.442,-0.998 1.184,-1.782 2.237,-2.364 0.964,-0.552 2.02,-0.831 3.154,-0.831 2.54,0 4.246,0.845 5.102,2.531 0.496,0.97 0.749,2.477 0.749,4.521 v 15.763 h -3.488 v -15.345 c 0,-2.991 -1.092,-4.481 -3.276,-4.481 -1.105,0 -2.072,0.347 -2.903,1.037 -0.998,0.829 -1.493,1.976 -1.493,3.444 v 15.345 h -3.486"
   fill="#9d9d9c" />
	<path
   id="path1026"
   d="m 414.659,413.102 c 2.956,0 4.438,-2.982 4.438,-8.957 0,-2.793 -0.278,-4.897 -0.832,-6.303 -0.688,-1.771 -1.891,-2.656 -3.606,-2.656 -2.851,0 -4.275,2.987 -4.275,8.959 -0.001,5.974 1.424,8.957 4.275,8.957 m -7.924,-8.957 c 0,-7.799 2.672,-11.7 8.008,-11.7 5.335,0 8.003,3.901 8.003,11.7 0,7.795 -2.668,11.698 -8.003,11.698 -5.335,0 -8.008,-3.904 -8.008,-11.698"
   fill="#9d9d9c" />
	<path
   id="path1028"
   d="m 432.039,415.26 v -22.231 h 3.315 v 2.612 h 0.085 c 0.441,-0.998 1.188,-1.782 2.24,-2.364 0.969,-0.552 2.018,-0.831 3.152,-0.831 2.544,0 4.242,0.845 5.101,2.531 0.499,0.97 0.747,2.477 0.747,4.521 v 15.763 h -3.48 v -15.345 c 0,-2.991 -1.094,-4.481 -3.281,-4.481 -1.104,0 -2.073,0.347 -2.902,1.037 -0.994,0.829 -1.493,1.976 -1.493,3.444 v 15.345 h -3.484"
   fill="#9d9d9c" />
	<path
   id="path1030"
   d="m 483.022,408.87 v -5.726 c -0.5,0.528 -1.455,1.011 -2.866,1.453 -1.658,0.527 -2.685,0.915 -3.071,1.163 -1.134,0.692 -1.695,1.867 -1.695,3.528 0,2.544 1.05,3.813 3.148,3.813 1.16,0 2.197,-0.422 3.11,-1.269 0.915,-0.836 1.374,-1.824 1.374,-2.962 m -7.261,-9.122 h -3.483 c 0,-2.544 0.583,-4.398 1.762,-5.558 1.172,-1.163 3.073,-1.746 5.702,-1.746 2.93,0 4.91,0.779 5.933,2.336 0.551,0.859 0.831,2.22 0.831,4.081 v 12.454 c 0,1.19 0.36,1.786 1.078,1.786 0.354,0 0.633,-0.095 0.83,-0.287 v 2.526 c -0.83,0.141 -1.505,0.209 -2.033,0.209 -0.942,0 -1.604,-0.122 -1.988,-0.379 -0.695,-0.392 -1.081,-1.23 -1.168,-2.524 h -0.079 c -0.559,0.969 -1.324,1.741 -2.305,2.325 -0.982,0.578 -1.999,0.871 -3.05,0.871 -4.034,0 -6.052,-2.159 -6.052,-6.47 0,-3.265 1.391,-5.314 4.188,-6.141 l 4.686,-1.409 c 1.163,-0.363 1.896,-0.79 2.202,-1.289 0.219,-0.33 0.33,-1.021 0.33,-2.074 0,-2.181 -1.193,-3.274 -3.57,-3.274 -2.543,0 -3.813,1.449 -3.813,4.354 v 0.209 z"
   fill="#9d9d9c" />
	<path
   id="path1032"
   d="m 512.801,415.26 v -29.615 h 3.486 v 9.911 c 0.446,-0.887 1.196,-1.625 2.255,-2.217 1.062,-0.596 2.104,-0.894 3.136,-0.894 2.51,0 4.192,0.845 5.056,2.531 0.472,0.97 0.712,2.477 0.712,4.521 v 15.763 h -3.485 v -15.345 c 0,-2.991 -1.097,-4.481 -3.281,-4.481 -1.098,0 -2.068,0.347 -2.9,1.037 -0.996,0.829 -1.491,1.976 -1.491,3.444 v 15.345 h -3.488"
   fill="#9d9d9c" />
	<path
   id="path1034"
   d="m 538.023,415.26 v -22.231 h 3.482 v 22.231 z m 0,-25.635 v -3.981 h 3.482 v 3.981 z"
   fill="#9d9d9c" />
	<path
   id="path1036"
   d="m 559.014,395.434 c -1.521,0 -2.604,0.786 -3.236,2.359 -0.555,1.36 -0.83,3.476 -0.83,6.353 0,5.415 1.343,8.127 4.023,8.127 1.743,0 2.973,-0.784 3.691,-2.366 0.556,-1.239 0.828,-3.161 0.828,-5.761 0,-5.806 -1.492,-8.712 -4.476,-8.712 m 7.757,-2.407 v 20.824 c 0,6.028 -2.521,9.043 -7.548,9.043 -4.479,0 -6.92,-1.853 -7.303,-5.558 h 3.486 c 0.164,1.879 1.352,2.819 3.564,2.819 1.937,0 3.221,-0.638 3.857,-1.909 0.308,-0.637 0.459,-1.659 0.459,-3.07 v -2.904 h -0.085 c -0.356,0.911 -1.004,1.643 -1.927,2.182 -0.933,0.536 -1.961,0.806 -3.095,0.806 -2.791,0 -4.741,-1.479 -5.848,-4.438 -0.691,-1.795 -1.039,-4.021 -1.039,-6.677 0,-7.8 2.423,-11.701 7.266,-11.701 1.156,0 2.208,0.348 3.15,1.038 0.857,0.667 1.409,1.451 1.657,2.364 h 0.08 v -2.819 z"
   fill="#9d9d9c" />
	<path
   id="path1038"
   d="m 577.1,415.26 v -29.615 h 3.482 v 9.911 c 0.445,-0.887 1.196,-1.625 2.256,-2.217 1.062,-0.596 2.104,-0.894 3.137,-0.894 2.507,0 4.191,0.845 5.059,2.531 0.471,0.97 0.705,2.477 0.705,4.521 v 15.763 h -3.482 v -15.345 c 0,-2.991 -1.092,-4.481 -3.277,-4.481 -1.105,0 -2.075,0.347 -2.9,1.037 -0.999,0.829 -1.496,1.976 -1.496,3.444 V 415.26 H 577.1"
   fill="#9d9d9c" />
	<path
   id="path1040"
   d="m 605.14,401.823 h 7.925 v -1.205 c 0,-3.624 -1.286,-5.433 -3.857,-5.433 -1.412,0 -2.478,0.646 -3.201,1.951 -0.575,1.078 -0.866,2.36 -0.866,3.857 v 0.83 m 11.571,2.737 h -11.694 c 0,2.545 0.177,4.398 0.536,5.559 0.608,1.991 1.854,2.983 3.734,2.983 1.442,0 2.49,-0.642 3.151,-1.947 0.413,-0.889 0.625,-1.95 0.625,-3.191 h 3.479 c 0,1.74 -0.479,3.343 -1.452,4.812 -1.352,2.045 -3.357,3.068 -6.011,3.068 -2.686,0 -4.649,-0.956 -5.887,-2.861 -1.224,-1.827 -1.833,-4.676 -1.833,-8.547 0,-7.992 2.643,-11.989 7.927,-11.989 3.013,0 5.1,1.189 6.261,3.569 0.779,1.602 1.163,3.982 1.163,7.13 v 1.414 z"
   fill="#9d9d9c" />
	<path
   id="path1042"
   d="m 626.335,415.26 v -22.231 h 3.487 v 3.317 c 1.234,-2.6 2.858,-3.9 4.869,-3.9 0.701,0 1.226,0.086 1.56,0.248 v 3.404 c -0.882,-0.114 -1.507,-0.166 -1.867,-0.166 -1.049,0 -2.038,0.414 -2.943,1.243 -1.081,1.023 -1.618,2.366 -1.618,4.024 v 14.061 h -3.488"
   fill="#9d9d9c" />
	<rect
   id="rect1044"
   height="29.615999"
   width="3.4820001"
   fill="#9d9d9c"
   y="385.64401"
   x="660.39502" />
	<path
   id="path1046"
   d="m 677.482,401.823 h 7.922 v -1.205 c 0,-3.624 -1.284,-5.433 -3.856,-5.433 -1.411,0 -2.475,0.646 -3.191,1.951 -0.586,1.078 -0.874,2.36 -0.874,3.857 v 0.83 m 11.576,2.737 h -11.697 c 0,2.545 0.178,4.398 0.539,5.559 0.604,1.991 1.849,2.983 3.727,2.983 1.441,0 2.493,-0.642 3.158,-1.947 0.414,-0.889 0.619,-1.95 0.619,-3.191 h 3.488 c 0,1.74 -0.485,3.343 -1.452,4.812 -1.356,2.045 -3.364,3.068 -6.021,3.068 -2.68,0 -4.646,-0.956 -5.886,-2.861 -1.221,-1.827 -1.828,-4.676 -1.828,-8.547 0,-7.992 2.637,-11.989 7.921,-11.989 3.02,0 5.106,1.189 6.267,3.569 0.776,1.602 1.165,3.982 1.165,7.13 z"
   fill="#9d9d9c" />
	<polyline
   id="polyline1048"
   points="702.83,415.26 696.813,393.028 700.63,393.028 704.774,410.865 704.858,410.865 709.01,393.028    712.826,393.028 706.811,415.26 702.83,415.26  "
   fill="#9d9d9c" />
	<path
   id="path1050"
   d="m 724.357,401.823 h 7.923 v -1.205 c 0,-3.624 -1.288,-5.433 -3.857,-5.433 -1.407,0 -2.478,0.646 -3.196,1.951 -0.579,1.078 -0.869,2.36 -0.869,3.857 v 0.83 m 11.573,2.737 h -11.697 c 0,2.545 0.179,4.398 0.539,5.559 0.608,1.991 1.85,2.983 3.732,2.983 1.437,0 2.487,-0.642 3.153,-1.947 0.413,-0.889 0.622,-1.95 0.622,-3.191 h 3.484 c 0,1.74 -0.487,3.343 -1.453,4.812 -1.358,2.045 -3.357,3.068 -6.014,3.068 -2.683,0 -4.646,-0.956 -5.892,-2.861 -1.215,-1.827 -1.82,-4.676 -1.82,-8.547 0,-7.992 2.638,-11.989 7.919,-11.989 3.015,0 5.103,1.189 6.264,3.569 0.779,1.602 1.162,3.982 1.162,7.13 v 1.414 z"
   fill="#9d9d9c" />
	<rect
   id="rect1052"
   height="29.615999"
   width="3.4860001"
   fill="#9d9d9c"
   y="385.64401"
   x="745.758" />
</g>
</svg>
